{
	"asset":{
		"generator":"Khronos glTF Blender I/O v4.3.47",
		"version":"2.0"
	},
	"scene":0,
	"scenes":[
		{
			"name":"Scene",
			"nodes":[
				0
			]
		}
	],
	"nodes":[
		{
			"mesh":0,
			"name":"CAD UW Buildings Solid"
		}
	],
	"meshes":[
		{
			"name":"CAD UW Buildings Solid",
			"primitives":[
				{
					"attributes":{
						"POSITION":0,
						"NORMAL":1
					},
					"indices":2
				}
			]
		}
	],
	"accessors":[
		{
			"bufferView":0,
			"componentType":5126,
			"count":42019,
			"max":[
				1282713.875,
				74,
				-4813225
			],
			"min":[
				1278153.25,
				9.999999974752427e-07,
				-4815477.5
			],
			"type":"VEC3"
		},
		{
			"bufferView":1,
			"componentType":5126,
			"count":42019,
			"type":"VEC3"
		},
		{
			"bufferView":2,
			"componentType":5123,
			"count":65718,
			"type":"SCALAR"
		}
	],
	"bufferViews":[
		{
			"buffer":0,
			"byteLength":504228,
			"byteOffset":0,
			"target":34962
		},
		{
			"buffer":0,
			"byteLength":504228,
			"byteOffset":504228,
			"target":34962
		},
		{
			"buffer":0,
			"byteLength":131436,
			"byteOffset":1008456,
			"target":34963
		}
	],
	"buffers":[
		{
			"byteLength":1139892,
			"uri":"campusbuildings.bin"
		}
	]
}
